<?xml version="1.0" standalone="no"?>
<!DOCTYPE svg PUBLIC "-//W3C//DTD SVG 20010904//EN"
 "http://www.w3.org/TR/2001/REC-SVG-20010904/DTD/svg10.dtd">
<svg version="1.0" xmlns="http://www.w3.org/2000/svg"
 width="16.000000pt" height="16.000000pt" viewBox="0 0 16.000000 16.000000"
 preserveAspectRatio="xMidYMid meet">
<metadata>
Created by potrace 1.11, written by Peter Selinger 2001-2013
</metadata>
<g transform="translate(0.000000,16.000000) scale(0.018182,-0.018182)"
fill="#000000" stroke="none">
<path d="M140 823 c0 -9 10 -28 23 -41 22 -24 22 -24 19 -330 -2 -291 -4 -308
-22 -324 -11 -9 -20 -26 -20 -37 0 -20 5 -21 100 -21 112 0 121 7 75 62 l-25
30 1 276 c0 165 4 267 9 252 5 -14 39 -159 76 -322 63 -276 69 -298 89 -298
19 0 26 22 88 303 72 325 79 380 48 397 -34 17 -23 45 -92 -245 l-43 -180 -60
245 -61 245 -103 3 c-91 2 -102 1 -102 -15z"/>
<path d="M587 834 c-9 -10 5 -38 31 -58 l23 -18 -3 -305 c-3 -302 -3 -305 -25
-323 -13 -10 -23 -28 -23 -39 0 -20 5 -21 105 -21 95 0 105 2 105 18 0 10 -11
28 -25 40 l-26 23 3 308 c3 305 3 310 26 333 39 43 31 48 -81 48 -57 0 -106
-3 -110 -6z"/>
</g>
</svg>
